<svg xmlns="http://www.w3.org/2000/svg" viewBox="0 0 753.95 255.69"><defs><style>.a677876a-e45a-4fc6-8dde-5414d56d50d9{fill:#274c9c;}.a677876a-e45a-4fc6-8dde-5414d56d50d9,.a7d1dcfe-c48e-46d3-9fb7-4781cdeecc66{fill-rule:evenodd;}.a7d1dcfe-c48e-46d3-9fb7-4781cdeecc66{fill:#62ac30;}</style></defs><title>LPF</title><g id="b076ea0f-a564-47f2-8590-edcf67428c34" data-name="Capa 2"><g id="b19e667b-7081-4c24-849b-5b8e241e2380" data-name="Layer 1"><path class="a677876a-e45a-4fc6-8dde-5414d56d50d9" d="M279.45,145.28h38.83v-8.7H288.69v-52h-9.24v60.72Zm58.19-21.76L346.43,97h.17l8.78,26.52Zm25.09,21.76h9.7L350.36,84.56h-7.7l-22.09,60.72h9.72l4.7-13.57h23l4.72,13.57Zm45.87-52h13.33A10.77,10.77,0,0,1,428.49,95c2.28,1.53,3.91,4,3.91,8.09,0,4.79-3.32,9.8-10.13,9.8H408.6V93.27Zm-9.21,52h9.21V121.57h14c12.43,0,19-9.65,19-18.26,0-6.57-2.91-11.7-6.59-14.51-4.68-3.69-8.87-4.24-13.62-4.24h-22v60.72Zm50.57,0H488.8v-8.7H459.19V118.74h25.25v-8.17H459.19V93.27H488.8V84.56H450v60.72Zm73.9-10.84a11.44,11.44,0,0,1-6.86,2.14,11.78,11.78,0,0,1-9.38-4.44c-2.36-3.09-3.06-4.77-3.06-17.24s.7-14.16,3.06-17.21a12.17,12.17,0,0,1,18.77,0c2.39,3,3.09,4.78,3.09,17.21,0,6.76-.19,10.43-.88,12.73L521.54,122l-5.46,6.28,7.78,6.16ZM539,146.66l5.45-6.32-8-6.4c1.7-3.17,2.21-5.88,2.21-19,0-14.57-.71-16.35-2.65-19.94a22,22,0,0,0-38,0c-2,3.59-2.67,5.37-2.67,19.94s.68,16.38,2.67,20a22,22,0,0,0,33.35,5.62l7.67,6.18Zm8.78-21.94c0,12.62,9.58,21.07,21.57,21.07s21.6-8.45,21.6-21.07V84.56h-9.23V123.7c0,8.35-5.37,12.88-12.37,12.88S557,132.05,557,123.7V84.56h-9.19v40.16Zm54.85,20.56h38.82v-8.7h-29.6V118.74h25.24v-8.17H611.88V93.27h29.6V84.56H602.66v60.72Zm60.13-64.57A3.52,3.52,0,0,1,666.38,77c3.41,0,7.91,3.15,12.29,3.15,5.7,0,8.45-4.78,9.39-9.9h-5.14c-.59,3.16-2.39,3.77-4,3.77-3.47,0-7.34-3.25-11.58-3.25-5.11,0-8.89,4-9.66,9.9Zm-12.72,64.57h9.23V102.11h.18l27.46,43.17h8.7V84.56h-9.21v43.16h-.18L658.77,84.56h-8.7v60.72Zm69.09-21.76L728,97h.16l8.76,26.52Zm25.09,21.76H754L731.88,84.56H724.2l-22.08,60.72h9.72l4.69-13.57h23.05l4.67,13.57Zm-464.8,79.65h9.24V199h25.23v-8.19H288.69v-17.9h29.59V164.2H279.45v60.73Zm51.88-21.77,8.77-26.5h.19l8.77,26.5Zm25.09,21.77-4.72-13.57h-23L324,224.93h-9.73l22.12-60.73H344l22.09,60.73Zm16.2,0h9.22V187.05H382l12.71,29.14h7.69l12.72-29.14h.16v37.88h9.21V164.2H415.8l-17.09,39.56L381.29,164.2h-8.67v60.73Zm64.64,0h9.23V164.2h-9.23v60.73Zm22,0h38.78v-8.74H468.49v-52H459.3v60.73Zm47.39,0h9.21V164.2h-9.21v60.73Zm32.76-21.77,8.8-26.5h.15l8.79,26.5Zm25.08,21.77h9.75L552.15,164.2h-7.67L522.4,224.93h9.74l4.66-13.57h23.05Z"/><path class="a677876a-e45a-4fc6-8dde-5414d56d50d9" d="M133.69,114.64a70.53,70.53,0,1,1-70.52,70.53A70.54,70.54,0,0,1,133.69,114.64Z"/><path class="a7d1dcfe-c48e-46d3-9fb7-4781cdeecc66" d="M127.86,0A127.86,127.86,0,0,0,79.35,246.16a81.68,81.68,0,0,1,48.82-142.5V0Zm11.38,45.19A107.34,107.34,0,0,1,185.58,249a79.17,79.17,0,0,0,10.93-11.63,81.7,81.7,0,0,0-57.27-133.74Z"/><path class="a677876a-e45a-4fc6-8dde-5414d56d50d9" d="M306,46a13.73,13.73,0,0,0-4.55-3.4,12.51,12.51,0,0,0-5.35-1.14A12,12,0,0,0,285,49a12.93,12.93,0,0,0-.87,4.86,13.38,13.38,0,0,0,.51,3.8A10.78,10.78,0,0,0,286.18,61a12.08,12.08,0,0,0,10.05,5.27,12,12,0,0,0,5.29-1.16A13.68,13.68,0,0,0,306,61.52v4.7a17.15,17.15,0,0,1-4.75,2.45,17.53,17.53,0,0,1-5.3.83,15.3,15.3,0,0,1-4.6-.72,15.67,15.67,0,0,1-4.19-2,15.06,15.06,0,0,1-5-5.54,15.33,15.33,0,0,1-1.73-7.27,15.58,15.58,0,0,1,1.16-6.25,14.92,14.92,0,0,1,3.5-5.11,15.58,15.58,0,0,1,5-3.3,16.37,16.37,0,0,1,6.06-1.09,16.14,16.14,0,0,1,5,.79A17.69,17.69,0,0,1,306,41.4V46Zm29.17,22.67V38.9h3.51V65.31h11.26v3.37Zm42.1,0V38.9h3.53V68.68Zm33.84,0v-31l21.8,23.8V38.9h3.37v31l-21.8-23.57V68.68Zm55.42,0V38.9H470V68.68Zm58-22.67a13.83,13.83,0,0,0-4.55-3.4,12.53,12.53,0,0,0-5.34-1.14,12,12,0,0,0-8.52,3.64A12.07,12.07,0,0,0,503.49,49a14,14,0,0,0-.84,4.86,13.38,13.38,0,0,0,.51,3.8A10.34,10.34,0,0,0,504.7,61a12.33,12.33,0,0,0,4.38,3.9,12.12,12.12,0,0,0,5.65,1.37,12.25,12.25,0,0,0,5.33-1.16,13.8,13.8,0,0,0,4.42-3.54v4.7a17.07,17.07,0,0,1-4.76,2.45,17.37,17.37,0,0,1-5.26.83,15.34,15.34,0,0,1-4.63-.72A15.25,15.25,0,0,1,499,53.92a15.75,15.75,0,0,1,1.17-6.25,14.89,14.89,0,0,1,3.49-5.11,15.35,15.35,0,0,1,5.06-3.3,16.82,16.82,0,0,1,11.05-.3,17.49,17.49,0,0,1,4.76,2.44V46Zm38.57-.46-4.75,11h9.5l-4.75-11Zm0-7.83,13.58,31h-3.87l-3.85-9.14H557.26l-3.88,9.14h-3.85Z"/></g></g></svg>